<svg width="112" height="64" viewBox="0 0 112 64" fill="none" xmlns="http://www.w3.org/2000/svg">
<path opacity="0.5" d="M55.6304 29.5386C77.896 29.5387 97.6947 40.133 110.295 56.5713C112.711 59.7236 110.292 64.0005 106.321 64.0005H4.93912C0.967307 64.0005 -1.45174 59.7236 0.964572 56.5713C13.5652 40.1328 33.3646 29.5386 55.6304 29.5386Z" fill="#CF9F02"/>
<mask id="mask0_3818_9169" style="mask-type:alpha" maskUnits="userSpaceOnUse" x="8" y="0" width="86" height="64">
<rect x="8.27881" width="85.3352" height="63.7673" rx="5.15555" fill="#D9D9D9"/>
</mask>
<g mask="url(#mask0_3818_9169)">
<path d="M47.8304 46.8861C47.6677 46.9031 47.5054 46.9197 47.343 46.9378C45.8915 47.2351 42.9587 49.136 33.1438 35.5163C32.1481 34.1342 30.3703 33.646 28.849 34.2225C28.566 34.3295 28.2974 34.4711 28.0491 34.644C26.3485 35.826 26.0118 38.2347 27.2262 39.9126C38.0946 54.9325 42.9996 55.2237 47.5023 54.3467C49.798 53.8994 51.5013 51.9835 51.1338 49.6701V49.6685L50.9715 49.1163C50.6737 48.4229 49.798 46.9 47.8304 46.8861Z" fill="white"/>
<path d="M44.994 54.9438C40.9116 54.9438 35.8941 52.4426 26.9646 40.1017C26.6424 39.6532 26.4123 39.1454 26.2874 38.6074C26.1626 38.0695 26.1456 37.5122 26.2373 36.9676C26.4193 35.9009 26.9962 34.9831 27.8647 34.3796C28.1366 34.1914 28.4277 34.0368 28.7347 33.9215C30.4276 33.2813 32.3481 33.8605 33.4059 35.329C42.4464 47.8747 45.4918 47.083 46.9553 46.7019C47.0706 46.6719 47.1786 46.6445 47.2789 46.6233L47.3089 46.6186L47.8145 46.5654H47.833C50.0022 46.5793 50.9586 48.2646 51.2683 48.9896L51.2822 49.0262L51.4565 49.6436C51.8178 52.0057 50.148 54.1614 47.5642 54.665C46.7305 54.8243 45.8836 54.9438 44.994 54.9438ZM30.1469 34.3067C29.4619 34.3059 28.7933 34.5163 28.2322 34.9091C27.508 35.4127 27.0252 36.1817 26.8736 37.0752C26.7956 37.5353 26.8097 38.0063 26.9149 38.4609C27.0202 38.9155 27.2145 39.3448 27.4868 39.7238C32.401 46.5157 36.4663 50.7967 39.9143 52.8124C43.0916 54.6693 45.375 54.4329 47.4412 54.0306C49.6791 53.5953 51.1271 51.7523 50.819 49.7392L50.6686 49.2263C50.4014 48.612 49.6062 47.2314 47.8481 47.2102L47.3957 47.2573C47.3089 47.2754 47.2179 47.2997 47.1208 47.3255C46.3375 47.5288 45.026 47.87 42.7758 46.4625C40.1905 44.8451 36.8628 41.2259 32.8853 35.7054C32.5719 35.2724 32.1602 34.9198 31.6842 34.6766C31.2081 34.4335 30.6811 34.3067 30.1465 34.3067H30.1469Z" fill="#172B4D"/>
<path d="M41.4995 53.9495C41.4995 53.9495 44.7346 52.3522 45.4222 47.1685L41.4995 53.9495Z" fill="white"/>
<path d="M41.6399 54.2375L41.3546 53.6594L41.4973 53.9494L41.353 53.661C41.3835 53.6459 44.4455 52.059 45.0999 47.1274L45.7389 47.2123C45.0374 52.5036 41.778 54.1692 41.6399 54.2375Z" fill="#172B4D"/>
<path d="M36.2065 50.7802C36.2065 50.7802 39.9927 47.8436 41.1072 44.6196L36.2065 50.7802Z" fill="white"/>
<path d="M36.4053 51.0352L36.0093 50.5253C36.0455 50.4968 39.733 47.6084 40.802 44.5151L41.4121 44.7261C40.2798 48.0013 36.5634 50.9125 36.4053 51.0352Z" fill="#172B4D"/>
<path d="M32.0034 45.6085C32.0034 45.6085 35.7545 43.8824 36.945 40.4189L32.0034 45.6085Z" fill="white"/>
<path d="M32.1386 45.9011L31.8687 45.3157C31.9049 45.2991 35.5102 43.6015 36.6398 40.314L37.2502 40.5234C36.0297 44.0763 32.2963 45.8286 32.1386 45.9011Z" fill="#172B4D"/>
<path d="M24.0025 35.248C24.0025 35.248 22.3829 38.3092 25.5571 40.8259C25.5571 40.8259 27.6549 42.3823 29.7609 41.2431L32.5359 38.7978C32.5359 38.7978 36.0568 37.094 33.5305 33.0132C33.5305 33.0132 31.6162 30.1795 28.5222 31.3522L27.5504 32.5901" fill="white"/>
<path d="M28.1054 41.9882C26.6053 41.9882 25.4337 41.1371 25.3655 41.0874C23.6166 39.6991 23.2599 38.1503 23.2672 37.0929C23.2765 35.9476 23.6999 35.1331 23.7184 35.0995L24.2891 35.4015L24.0038 35.2515L24.2891 35.4015C24.2282 35.5168 22.8407 38.2641 25.7584 40.5776C25.7692 40.5853 27.6928 41.9716 29.5762 40.9809L32.3563 38.531L32.3956 38.5113C32.408 38.5051 33.6297 37.8939 34.008 36.5816C34.2918 35.5943 34.04 34.452 33.2568 33.1868C33.1912 33.0911 31.4817 30.6412 28.7205 31.6257L27.805 32.7923L27.2979 32.395L28.3256 31.0858L28.4093 31.0538C31.7034 29.8055 33.7789 32.8058 33.7986 32.8362C34.6913 34.2774 34.9675 35.597 34.6258 36.7682C34.2023 38.2232 32.9695 38.9378 32.7207 39.0697L29.9484 41.5135L29.9168 41.5316C29.3606 41.8328 28.7379 41.9898 28.1054 41.9882Z" fill="#172B4D"/>
<path d="M27.5828 32.6504L28.4663 31.2475C29.9922 30.5495 32.1098 31.1518 33.3639 32.8278C34.7715 34.7074 34.6573 37.1786 33.109 38.3363C32.9177 38.479 32.7064 38.5985 32.4804 38.6926L30.2259 40.7072C30.1149 40.8235 29.9946 40.9306 29.8661 41.0273C29.1859 41.534 28.3298 41.7253 27.4251 41.5734C27.3112 41.5546 27.1983 41.5309 27.0865 41.5024C26.0934 41.2459 25.1779 40.6116 24.5069 39.7153C23.4156 38.2557 23.2073 36.3915 23.9879 35.073L27.4586 32.2713" fill="white"/>
<path d="M28.0148 41.9455C27.8038 41.9455 27.5883 41.9273 27.3708 41.8911C27.2479 41.8704 27.1259 41.8445 27.0052 41.8136C25.9397 41.539 24.9601 40.861 24.2467 39.9066C23.0778 38.3455 22.8607 36.3371 23.708 34.9083L23.7381 34.8582L27.2543 32.0199L27.4471 32.2578L28.2438 30.9929L28.3322 30.9532C30.0459 30.1703 32.3185 30.8926 33.6231 32.6342C34.3481 33.6037 34.7187 34.7517 34.6674 35.867C34.6142 37.0062 34.1298 37.9741 33.3023 38.5931C33.102 38.7418 32.8855 38.8674 32.6571 38.9676L30.4512 40.9397C30.3309 41.065 30.2005 41.1802 30.0614 41.2841C29.4767 41.7195 28.7679 41.9455 28.0148 41.9455ZM24.2363 35.2858C23.5545 36.4902 23.7639 38.1847 24.7646 39.5213C25.3913 40.3586 26.2447 40.9521 27.166 41.19C27.2724 41.2174 27.3773 41.2386 27.4772 41.2552C28.3017 41.3932 29.0606 41.2251 29.6711 40.7685C29.7833 40.6848 29.8909 40.5892 29.99 40.4847L30.0081 40.4665L32.3035 38.4153L32.3536 38.3941C32.5525 38.3108 32.7406 38.2038 32.9139 38.0756C33.5834 37.575 33.9764 36.7802 34.0207 35.8365C34.0662 34.8686 33.7396 33.869 33.1037 33.0194C32.0015 31.5451 30.1188 30.905 28.6842 31.5008L27.854 32.8208L27.535 32.6203L24.2363 35.2858Z" fill="#172B4D"/>
<path d="M33.1073 38.3348C32.427 38.843 31.5709 39.0324 30.6662 38.8824C30.5536 38.8642 30.4414 38.84 30.3276 38.811C29.3346 38.5546 28.4191 37.9206 27.7481 37.024C26.5989 35.4887 26.4076 33.7198 27.241 32.4337L33.1073 38.3348ZM29.9528 33.2316L28.571 31.082L29.9528 33.2316Z" fill="white"/>
<path d="M31.2574 39.2545C31.0465 39.2545 30.8309 39.2364 30.6134 39.1997C30.4906 39.1787 30.3686 39.1529 30.2478 39.1222C29.1819 38.8477 28.2028 38.1697 27.4893 37.2156C26.2553 35.5666 26.0563 33.6674 26.9703 32.2563L27.5121 32.6072C26.7485 33.7842 26.9383 35.4027 28.0069 36.8288C28.6339 37.6661 29.4858 38.2592 30.4086 38.4975C30.5181 38.5249 30.6196 38.5461 30.7198 38.5627C31.5443 38.7007 32.3033 38.5322 32.9137 38.0756L33.3009 38.5931C32.7194 39.0285 32.0102 39.2545 31.257 39.2545H31.2574ZM29.6813 33.4063L28.3 31.2567L28.8437 30.9077L30.2251 33.0573L29.6813 33.4063Z" fill="#172B4D"/>
<path d="M29.1673 34.0992L27.0405 32.2666L29.1673 34.0992Z" fill="white"/>
<path d="M27.255 32.0229L26.8335 32.5112L28.9595 34.3433L29.3806 33.8551L27.255 32.0233V32.0229Z" fill="#172B4D"/>
<path d="M29.5137 33.1764C30.0219 32.9049 31.077 33.316 31.6509 33.9913C32.3705 34.8362 32.5131 35.8963 31.9698 36.3576C31.426 36.8188 30.4029 36.508 29.6833 35.663C29.2796 35.1879 29.0578 34.6465 29.0366 34.1806C29.0366 34.1806 29.0763 33.8077 29.1735 33.6604" fill="white"/>
<path d="M31.3366 36.8962C30.7158 36.8962 29.9977 36.5322 29.4362 35.872C29.002 35.3626 28.7378 34.7509 28.712 34.1975L28.7104 34.1732L28.7135 34.149C28.7239 34.0425 28.7714 33.6831 28.9002 33.486L29.4405 33.8377C29.4135 33.8832 29.3753 34.0471 29.3587 34.1929C29.3845 34.6009 29.5909 35.0606 29.9279 35.4551C30.5199 36.1512 31.3598 36.4531 31.7589 36.1134C31.9972 35.9117 31.988 35.5565 31.9621 35.3626C31.9109 34.9815 31.7072 34.5585 31.4037 34.2002C30.9013 33.6087 29.9962 33.2828 29.6637 33.4617L29.3587 32.8929C30.0586 32.5181 31.2746 33.0537 31.8954 33.7834C32.2826 34.2384 32.5344 34.7694 32.6031 35.2758C32.679 35.8357 32.5271 36.3074 32.1777 36.6047C31.9456 36.8022 31.654 36.8962 31.337 36.8962H31.3366Z" fill="#172B4D"/>
<path d="M88.87 47.5957H61.7439C60.3382 47.5957 59.1038 48.8988 58.9885 50.5054L57.3854 72.6689C57.2685 74.2754 58.3144 75.5785 59.7204 75.5785H86.8466C88.2522 75.5785 89.4863 74.2754 89.602 72.6689L91.2051 50.5038C91.3204 48.8972 90.2761 47.5957 88.87 47.5957Z" fill="#F7F8F9"/>
<path d="M86.8484 75.9016H59.7223C59.0162 75.9016 58.3575 75.6101 57.8654 75.0825C57.2901 74.4636 56.9985 73.5758 57.0656 72.646L58.6687 50.481C58.796 48.7121 60.1777 47.2725 61.7457 47.2725H88.8719C89.578 47.2725 90.2367 47.564 90.7287 48.0919C91.3041 48.7109 91.5957 49.5983 91.5286 50.528L89.9255 72.6931C89.7982 74.462 88.4165 75.9016 86.8484 75.9016ZM61.7457 47.9172C60.5086 47.9172 59.4157 49.0884 59.3124 50.528L57.7093 72.6931C57.6545 73.4455 57.8836 74.1554 58.3378 74.644C58.705 75.0382 59.197 75.2568 59.7207 75.2568H86.8469C88.084 75.2568 89.1769 74.0856 89.2803 72.646L90.8834 50.481C90.9381 49.7286 90.7091 49.0186 90.2548 48.53C89.8877 48.1359 89.3956 47.9172 88.8704 47.9172H61.7457Z" fill="#172B4D"/>
<path d="M88.8708 47.5957C87.4652 47.5957 86.2307 48.8988 86.1154 50.5054L84.5123 72.6704C84.3955 74.277 85.4413 75.5801 86.8474 75.5801C88.253 75.5801 89.4871 74.277 89.6027 72.6704L91.2058 50.5054C91.3212 48.8972 90.2768 47.5957 88.8708 47.5957Z" fill="#F7F8F9"/>
<path d="M86.8476 75.9016C86.1415 75.9016 85.4824 75.6101 84.9907 75.0825C84.4154 74.4636 84.1238 73.5758 84.1905 72.646L85.7936 50.481C85.9213 48.7121 87.303 47.2725 88.871 47.2725C89.5771 47.2725 90.2358 47.564 90.7279 48.0919C91.3032 48.7109 91.5948 49.5983 91.5277 50.528L89.9246 72.6931C89.7973 74.462 88.4156 75.9016 86.8476 75.9016ZM88.871 47.9172C87.6339 47.9172 86.5422 49.0884 86.4376 50.528L84.8345 72.6931C84.7798 73.4455 85.0089 74.1554 85.4628 74.644C85.8303 75.0397 86.322 75.2568 86.8476 75.2568C88.0847 75.2568 89.1776 74.0856 89.281 72.646L90.8841 50.481C90.9388 49.7286 90.7094 49.0186 90.2555 48.53C89.8868 48.1359 89.3947 47.9172 88.871 47.9172Z" fill="#172B4D"/>
<path d="M84.7218 44.3704L78.3183 33.6025L46.6775 40.9737C46.6537 40.9794 46.6322 40.9919 46.6155 41.0097C46.5988 41.0275 46.5876 41.0498 46.5834 41.0738C46.5792 41.0979 46.5821 41.1226 46.5917 41.145C46.6014 41.1675 46.6174 41.1866 46.6377 41.2L49.7302 42.8429L84.4017 44.8756C84.4627 44.8792 84.5235 44.8665 84.5778 44.8386C84.6322 44.8108 84.6781 44.7689 84.7107 44.7174C84.7434 44.6658 84.7617 44.6064 84.7636 44.5454C84.7656 44.4844 84.7511 44.4239 84.7218 44.3704Z" fill="#F7F8F9"/>
<path d="M84.425 45.1988C84.4111 45.1988 84.3991 45.1988 84.3852 45.1972L49.6443 43.1599L46.4639 41.47C46.3906 41.4225 46.333 41.3544 46.2981 41.2743C46.2633 41.1942 46.2528 41.1056 46.268 41.0196C46.2985 40.8434 46.4304 40.7022 46.6051 40.6613L78.4784 33.2358L85.0077 44.2173C85.1245 44.4298 85.1156 44.6874 84.9865 44.8907C84.8634 45.0835 84.651 45.1988 84.425 45.1988ZM49.8221 42.5244L84.4219 44.5524C84.4265 44.5524 84.4323 44.554 84.4385 44.5436C84.4431 44.5359 84.4431 44.5312 84.44 44.5266L78.161 33.9686L47.2653 41.1665L49.8221 42.5244Z" fill="#172B4D"/>
<path d="M69.6427 49.8828L69.7202 43.7253C69.7202 43.7253 65.3949 41.8033 60.5386 43.3979V49.8828H69.6427Z" fill="white"/>
<path d="M69.9629 50.2057H60.2163V43.1639L60.438 43.091C65.3553 41.4771 69.6714 43.3505 69.8519 43.4308L70.0462 43.5171L69.9629 50.2057ZM60.8615 49.5609H69.3251L69.3949 43.9421C68.5268 43.6112 64.8802 42.4007 60.8615 43.634V49.5609Z" fill="#172B4D"/>
<path d="M83.3735 0.896085C83.3735 0.896085 80.8703 5.44741 80.1915 6.05865L78.455 5.78716C78.3652 5.75515 78.3015 5.87354 78.3775 5.931L79.9428 6.54417C79.9428 6.54417 78.4064 8.67406 77.934 8.89387L76.4327 8.46311C76.3919 8.45077 76.3599 8.50091 76.3888 8.53253L77.2966 9.55679L75.5855 11.2089L73.1382 11.0932C73.1017 11.0907 73.0651 11.099 73.0333 11.1171C73.0014 11.1352 72.9756 11.1624 72.9591 11.1951C72.9426 11.2278 72.9361 11.2647 72.9405 11.3011C72.9448 11.3375 72.9598 11.3718 72.9836 11.3998L74.3892 12.3118L71.775 14.8011L70.4681 14.7086C70.3435 14.6993 70.2996 14.8705 70.4133 14.9241L71.2818 15.326C71.2818 15.326 68.9938 18.2433 66.5635 17.4196L65.6356 17.1601C65.6356 17.1601 64.3453 15.7494 65.5338 12.5864L66.7941 12.726C66.7941 12.726 65.3001 11.2725 67.4501 8.67251L68.7007 9.45961C68.7007 9.45961 67.2615 7.42998 71.0812 4.62368C71.1007 4.60959 71.1227 4.59954 71.1461 4.59412C71.1695 4.58869 71.1937 4.58801 71.2174 4.59211C71.241 4.59621 71.2636 4.605 71.2838 4.61798C71.304 4.63095 71.3214 4.64784 71.335 4.66764L71.9208 5.57621C71.9208 5.57621 70.8475 2.78804 76.4964 0.893386C76.5364 0.880254 76.5789 0.87616 76.6207 0.881398C76.6625 0.886636 76.7027 0.901075 76.7383 0.923678C76.7739 0.946281 76.804 0.976487 76.8265 1.01212C76.849 1.04776 76.8634 1.08794 76.8685 1.12978L76.9838 2.17949C76.9838 2.17949 77.1813 0.85675 77.705 0.623052C78.2287 0.389354 79.9201 0.187665 83.3735 0.896085Z" fill="white"/>
<path d="M81.1227 0.524627C81.771 0.601755 82.5164 0.721304 83.3713 0.895998C83.3713 0.895998 81.7316 4.78248 80.1891 6.05856L78.4525 5.78553C78.4463 5.78255 78.4394 5.78097 78.4325 5.7809C78.3538 5.77164 78.3052 5.87654 78.3735 5.92937L79.9388 6.54254C79.9388 6.54254 78.4024 8.67243 77.93 8.89224L76.4287 8.46148C76.4256 8.46148 76.4241 8.45994 76.421 8.45994C76.4123 8.45879 76.4034 8.46037 76.3957 8.46446C76.3879 8.46855 76.3816 8.47495 76.3776 8.48278C76.3736 8.49061 76.3722 8.49948 76.3735 8.50817C76.3747 8.51685 76.3787 8.52493 76.3847 8.53128L77.2925 9.55516L75.5815 11.2072L73.1342 11.0915C73.0976 11.089 73.0611 11.0973 73.0293 11.1155C72.9974 11.1336 72.9716 11.1607 72.9551 11.1935C72.9386 11.2262 72.9321 11.2631 72.9364 11.2995C72.9408 11.3359 72.9558 11.3702 72.9796 11.3981L74.3852 12.3102L71.771 14.7995L70.464 14.7069C70.3395 14.6977 70.2955 14.8689 70.4093 14.9225L71.2777 15.3243C71.2777 15.3243 69.3283 17.8094 67.1179 17.5452C66.928 17.5217 66.741 17.4795 66.5595 17.4191L65.6316 17.16C65.6316 17.16 64.3413 15.7493 65.5302 12.5863L66.7901 12.7255C66.7901 12.7255 65.2961 11.2724 67.446 8.67243L68.6967 9.45952C68.6967 9.45952 67.2575 7.4299 71.0772 4.62359C71.1142 4.59717 71.1596 4.58524 71.2049 4.59004C71.255 4.59621 71.302 4.62167 71.331 4.66717L71.9167 5.57612C71.9167 5.57612 70.8435 2.78795 76.4923 0.892914C76.5325 0.879506 76.5752 0.87521 76.6172 0.880337C76.6593 0.885464 76.6996 0.899887 76.7354 0.922557C76.7712 0.945227 76.8015 0.975577 76.8241 1.01141C76.8467 1.04723 76.861 1.08764 76.866 1.1297L76.9813 2.17941C76.9813 2.17941 77.1788 0.856663 77.7025 0.622965C78.097 0.447113 79.1521 0.289387 81.1227 0.524241V0.524627Z" fill="white"/>
<path d="M67.4546 17.8885C67.1192 17.8899 66.7858 17.8361 66.4678 17.7292L65.548 17.4712C65.49 17.4547 65.4375 17.4227 65.3961 17.3787C65.3386 17.315 63.9874 15.7844 65.2307 12.4729C65.2562 12.406 65.3031 12.3494 65.364 12.3118C65.4249 12.2741 65.4965 12.2576 65.5677 12.2647L66.1766 12.3333C65.8697 11.6052 65.7089 10.2686 67.1997 8.46806C67.2498 8.40784 67.32 8.36788 67.3974 8.3556C67.4747 8.34333 67.5538 8.35959 67.6201 8.40134L68.1199 8.71525C68.015 7.7793 68.3701 6.21515 70.8872 4.366C70.9897 4.29008 71.1174 4.2564 71.2439 4.27191C71.3762 4.28733 71.4946 4.35366 71.5763 4.45547C71.6262 4.23054 71.7006 4.01173 71.7981 3.80297C72.419 2.48331 73.9646 1.40159 76.3906 0.586734C76.4755 0.558197 76.565 0.548941 76.6533 0.559739C76.739 0.569402 76.8217 0.597283 76.8958 0.641513C76.9699 0.685742 77.0337 0.745298 77.0829 0.816189C77.209 0.599074 77.3698 0.417052 77.5715 0.327584C77.8661 0.197237 78.8044 -0.077338 81.1621 0.203408C81.8605 0.286706 82.6272 0.413967 83.4363 0.579406C83.483 0.588987 83.5271 0.60883 83.5652 0.637503C83.6034 0.666176 83.6347 0.702962 83.6569 0.745208C83.6791 0.787454 83.6917 0.834105 83.6937 0.881792C83.6956 0.92948 83.687 0.977014 83.6684 1.02096C83.6001 1.18293 81.9805 4.99537 80.394 6.3077C80.3436 6.34967 80.2815 6.37512 80.2162 6.38059C80.248 6.43452 80.2634 6.49656 80.2604 6.55911C80.2575 6.62165 80.2363 6.68197 80.1996 6.73268C79.8274 7.24828 78.5737 8.94856 78.0651 9.18535C77.9943 9.21851 77.9139 9.22494 77.8387 9.20347L77.2633 9.03842L77.5337 9.34307C77.5885 9.40546 77.6173 9.48648 77.6142 9.56947C77.6112 9.65246 77.5764 9.73111 77.5171 9.78926L75.806 11.4413C75.7741 11.4716 75.7364 11.4951 75.6952 11.5105C75.654 11.5259 75.6101 11.5328 75.5661 11.5308L73.6353 11.4398L74.5612 12.0402C74.6021 12.0669 74.6364 12.1024 74.6617 12.1441C74.6869 12.1859 74.7024 12.2329 74.7069 12.2815C74.7114 12.33 74.7049 12.379 74.6878 12.4247C74.6707 12.4705 74.6435 12.5117 74.6082 12.5454L71.994 15.0351C71.9612 15.0659 71.9225 15.0896 71.8801 15.1047C71.8378 15.1198 71.7928 15.1261 71.7479 15.123L71.5127 15.1065C71.565 15.1627 71.5956 15.2358 71.5989 15.3125C71.6022 15.3893 71.5781 15.4647 71.5308 15.5253C71.4549 15.6267 69.6532 17.8885 67.4546 17.8885ZM65.8226 16.8781L66.6502 17.1102L66.6668 17.1149C66.8276 17.1693 66.9934 17.2074 67.1604 17.2267C68.7134 17.4118 70.1692 16.0667 70.7553 15.4385L70.2787 15.2187C70.1855 15.1768 70.1104 15.1031 70.0667 15.0108C70.023 14.9185 70.0137 14.8136 70.0403 14.715C70.0647 14.6158 70.1236 14.5284 70.2065 14.4686C70.2893 14.4088 70.3908 14.3805 70.4927 14.3888L71.6569 14.4705L73.872 12.3619L72.8077 11.6716C72.7817 11.6547 72.7582 11.6344 72.7379 11.611C72.6728 11.535 72.6318 11.4414 72.6199 11.3421C72.608 11.2428 72.6259 11.1422 72.6712 11.053C72.7637 10.8694 72.9535 10.7599 73.1613 10.7753L75.4613 10.8833L76.8503 9.54206L76.1477 8.74842C76.0981 8.69335 76.0667 8.62434 76.0577 8.55079C76.0488 8.47723 76.0627 8.40269 76.0976 8.33732C76.1374 8.26195 76.2021 8.20274 76.2808 8.16982C76.3594 8.1369 76.4471 8.13232 76.5287 8.15685L77.8827 8.54519C78.1727 8.30995 78.8379 7.49547 79.4345 6.69296L78.2594 6.23327C78.2316 6.22255 78.2054 6.20773 78.1819 6.18931C78.1105 6.13593 78.0589 6.0603 78.0352 5.97435C78.0116 5.88839 78.0172 5.797 78.0512 5.71459C78.0878 5.62351 78.1561 5.54874 78.2435 5.50408C78.3309 5.45942 78.4315 5.4479 78.5267 5.47163L80.0947 5.71767C81.2578 4.66333 82.4872 2.0888 82.9183 1.13473C82.3122 1.01703 81.7021 0.920435 81.0893 0.845113C79.2918 0.631083 78.2155 0.751017 77.8387 0.917613C77.6247 1.01325 77.3864 1.68388 77.3046 2.22686C77.2921 2.30389 77.2524 2.3739 77.1928 2.42426C77.1332 2.47461 77.0576 2.50199 76.9795 2.50144C76.9012 2.50012 76.8261 2.47029 76.7682 2.41754C76.7104 2.36479 76.6738 2.29274 76.6652 2.21491L76.5561 1.21494C73.8049 2.14665 72.7757 3.27349 72.3993 4.05479C72.0137 4.85423 72.2188 5.44001 72.2261 5.46431C72.2534 5.53879 72.2523 5.62068 72.223 5.6944C72.1938 5.76812 72.1385 5.82851 72.0676 5.86409C71.9967 5.89967 71.9153 5.90795 71.8387 5.88735C71.7621 5.86675 71.6958 5.81871 71.6523 5.75238L71.1514 4.97724C67.8144 7.4893 68.9197 9.20501 68.9683 9.2779C69.0097 9.33944 69.0289 9.41331 69.0226 9.48725C69.0163 9.56119 68.9849 9.63075 68.9336 9.68436C68.8825 9.73776 68.8145 9.7719 68.7412 9.78103C68.6678 9.79017 68.5936 9.77373 68.531 9.7345L67.5244 9.10051C65.8593 11.2774 66.9734 12.4471 67.0235 12.4968C67.0704 12.5445 67.1015 12.6054 67.1127 12.6713C67.1239 12.7373 67.1146 12.8051 67.086 12.8655C67.0573 12.9257 67.0106 12.9755 66.9523 13.0079C66.8941 13.0403 66.8271 13.0537 66.7609 13.0464L65.7544 12.9342C64.9117 15.3567 65.6194 16.5931 65.8226 16.8781Z" fill="#172B4D"/>
<path d="M65.3518 21.3109C65.301 21.3108 65.251 21.2988 65.2058 21.2758C65.1606 21.2528 65.1214 21.2195 65.0914 21.1786C65.0614 21.1377 65.0415 21.0903 65.0332 21.0403C65.0249 20.9902 65.0285 20.939 65.0436 20.8906C66.9109 15.0608 70.1098 9.95458 74.2951 6.12247C77.4361 3.24791 80.114 2.02042 80.4086 1.89162C80.486 1.85702 80.5739 1.85399 80.6536 1.88315C80.7332 1.91232 80.7983 1.97138 80.8351 2.0478C80.854 2.08695 80.8647 2.12954 80.8666 2.17298C80.8684 2.21641 80.8614 2.25976 80.8459 2.30038C80.8304 2.341 80.8068 2.37803 80.7765 2.4092C80.7462 2.44037 80.7098 2.46502 80.6697 2.48164C80.2385 2.67292 70.0731 7.30099 65.6583 21.0876C65.6374 21.1524 65.5964 21.2089 65.5413 21.249C65.4862 21.289 65.4199 21.3106 65.3518 21.3105V21.3109Z" fill="#172B4D"/>
<path d="M76.3192 17.3179L86.0943 21.708C86.3265 21.8218 86.4676 22.0647 86.4495 22.3223L84.9193 44.2263C84.9125 44.3247 84.8828 44.4202 84.8325 44.5052C84.7823 44.5901 84.7129 44.6621 84.6299 44.7154C84.5469 44.7688 84.4525 44.802 84.3544 44.8124C84.2563 44.8228 84.1571 44.8102 84.0647 44.7754L74.728 41.376" fill="white"/>
<path d="M84.2865 45.1398C84.1728 45.1398 84.059 45.1197 83.948 45.0773L74.6147 41.6794L74.8361 41.074L84.1728 44.4738C84.2185 44.4917 84.2678 44.4984 84.3167 44.4934C84.3655 44.4884 84.4124 44.4717 84.4535 44.4449C84.4945 44.4189 84.5288 44.3837 84.5535 44.342C84.5783 44.3003 84.593 44.2534 84.5962 44.205L86.1268 22.301C86.1313 22.239 86.1171 22.177 86.086 22.1231C86.0548 22.0693 86.0082 22.0261 85.9521 21.9991L76.1843 17.6124L76.4485 17.0239L86.224 21.4141C86.398 21.4965 86.543 21.6294 86.6403 21.7956C86.7375 21.9617 86.7823 22.1533 86.7689 22.3454L85.2387 44.2493C85.2289 44.398 85.1843 44.5422 85.1083 44.6703C85.0323 44.7985 84.9271 44.9068 84.8014 44.9867C84.6483 45.0868 84.4694 45.1402 84.2865 45.1402V45.1398Z" fill="#172B4D"/>
<path d="M75.9448 17.2192L48.2557 17.2755C47.9398 17.2755 47.6787 17.5197 47.6575 17.8336L46.0772 40.4479C46.0714 40.5296 46.0824 40.6116 46.1095 40.6889C46.1367 40.7662 46.1794 40.8371 46.235 40.8972C46.2906 40.9574 46.358 41.0054 46.4329 41.0385C46.5079 41.0716 46.5888 41.089 46.6707 41.0896L74.3387 41.3383C74.4916 41.34 74.6394 41.283 74.7518 41.1792C74.8641 41.0754 74.9325 40.9325 74.943 40.7799L76.5461 17.8625C76.5518 17.7801 76.5405 17.6974 76.5128 17.6195C76.4852 17.5417 76.4418 17.4704 76.3854 17.41C76.329 17.3497 76.2608 17.3016 76.185 17.2688C76.1092 17.236 76.0274 17.2191 75.9448 17.2192Z" fill="white"/>
<path d="M74.3413 41.6618H74.332L46.6656 41.4127C46.5396 41.411 46.4152 41.384 46.2999 41.3332C46.1846 41.2823 46.0808 41.2088 45.9946 41.1169C45.9094 41.0244 45.8439 40.9155 45.8021 40.7969C45.7604 40.6783 45.7432 40.5525 45.7516 40.427L47.3319 17.8131C47.349 17.5804 47.4533 17.3627 47.6238 17.2035C47.7944 17.0443 48.0188 16.9553 48.2521 16.9543L75.9413 16.8979H75.9428C76.0695 16.8979 76.1948 16.9239 76.311 16.9744C76.4272 17.0249 76.5317 17.0987 76.6182 17.1913C76.7046 17.2839 76.7711 17.3932 76.8135 17.5126C76.8559 17.632 76.8732 17.7588 76.8645 17.8852L75.2629 40.8045C75.2462 41.0375 75.1418 41.2554 74.9707 41.4145C74.7997 41.5736 74.5748 41.6619 74.3413 41.6618ZM75.9428 17.5427L48.2536 17.599C48.1834 17.5993 48.1158 17.626 48.0643 17.6738C48.0127 17.7216 47.9811 17.787 47.9756 17.857L46.3952 40.471C46.3925 40.5088 46.3976 40.5468 46.4102 40.5826C46.4228 40.6184 46.4426 40.6513 46.4683 40.6792C46.4941 40.707 46.5253 40.7293 46.56 40.7446C46.5947 40.76 46.6322 40.768 46.6702 40.7683L74.3382 41.017H74.3413C74.4118 41.0168 74.4796 40.9899 74.5311 40.9418C74.5826 40.8937 74.614 40.8278 74.6189 40.7575L76.2209 17.8389C76.2236 17.8008 76.2185 17.7626 76.2057 17.7266C76.193 17.6906 76.1729 17.6577 76.1468 17.6299C76.1206 17.602 76.089 17.5799 76.0539 17.5649C76.0188 17.5499 75.981 17.5424 75.9428 17.5427Z" fill="#172B4D"/>
<path d="M82.7646 73.4854L76.5477 62.3369L44.9644 70.1149L52.6401 72.8664L82.7646 73.4854Z" fill="#F7F8F9"/>
<path d="M83.3207 73.8187L52.5815 73.1874L43.8491 70.0564L76.7089 61.9634L83.3207 73.8187ZM52.7014 72.5442L82.2093 73.1496L76.3873 62.7065L46.0824 70.1702L52.7014 72.5442Z" fill="#172B4D"/>
<path d="M74.5931 42.8096L84.3532 46.4658C84.5626 46.5445 84.6976 46.7508 84.6841 46.9737L83.1281 73.1162C83.1233 73.1961 83.0999 73.2737 83.0597 73.3429C83.0194 73.412 82.9635 73.4708 82.8964 73.5143C82.8293 73.5579 82.7529 73.5851 82.6734 73.5937C82.5939 73.6023 82.5134 73.5921 82.4385 73.564L73.1323 70.0778" fill="white"/>
<path d="M82.6199 73.9211C82.5212 73.9211 82.4224 73.903 82.3253 73.8667L73.019 70.3805L73.2454 69.7766L82.5516 73.2628C82.6288 73.2917 82.6897 73.2643 82.7201 73.2447C82.745 73.229 82.7657 73.2076 82.7804 73.1822C82.7952 73.1568 82.8036 73.1282 82.805 73.0989L84.361 46.9548C84.3636 46.9148 84.3532 46.875 84.3313 46.8414C84.3094 46.8077 84.2772 46.7821 84.2396 46.7682L74.4794 43.1123L74.7058 42.5088L84.4659 46.1647C84.6331 46.2265 84.7759 46.3407 84.873 46.4902C84.97 46.6398 85.0162 46.8166 85.0047 46.9946L83.4486 73.1382C83.4418 73.2687 83.404 73.3957 83.3383 73.5087C83.2725 73.6216 83.1808 73.7173 83.0707 73.7877C82.9342 73.8756 82.7776 73.9211 82.6199 73.9211Z" fill="#172B4D"/>
<path d="M74.2961 42.728L46.5371 42.7843C46.2803 42.7843 46.0693 42.9829 46.0512 43.2394L44.2915 69.3044C44.2873 69.3707 44.2966 69.4371 44.3189 69.4997C44.3411 69.5623 44.3759 69.6196 44.4211 69.6683C44.4663 69.717 44.5209 69.756 44.5816 69.7828C44.6424 69.8097 44.7079 69.8239 44.7743 69.8246L72.6672 70.0749C72.7919 70.0764 72.9124 70.0298 73.0037 69.9448C73.095 69.8598 73.15 69.7429 73.1573 69.6183L74.782 43.2467C74.7867 43.1802 74.7776 43.1133 74.7553 43.0504C74.733 42.9875 74.698 42.9299 74.6523 42.8812C74.6067 42.8325 74.5515 42.7938 74.4902 42.7674C74.4289 42.7411 74.3628 42.7277 74.2961 42.728Z" fill="white"/>
<path d="M72.674 70.3963H72.6663L44.7735 70.146C44.6632 70.1447 44.5543 70.121 44.4533 70.0765C44.3524 70.032 44.2615 69.9675 44.1862 69.8869C44.111 69.8059 44.0532 69.7105 44.0164 69.6063C43.9796 69.5022 43.9645 69.3916 43.9721 69.2814L45.7314 43.2164C45.7458 43.012 45.8369 42.8206 45.9864 42.6805C46.1359 42.5404 46.3329 42.462 46.5378 42.4609L74.2983 42.4046H74.2999C74.4104 42.4046 74.5198 42.4273 74.6212 42.4712C74.7227 42.5151 74.814 42.5793 74.8897 42.6599C74.9654 42.7405 75.0237 42.8357 75.0612 42.9397C75.0986 43.0437 75.1143 43.1543 75.1074 43.2646L73.4831 69.6362C73.4705 69.8422 73.3797 70.0355 73.2294 70.1768C73.079 70.3181 72.8803 70.3966 72.674 70.3963ZM74.2999 43.0494L46.5405 43.1053C46.4989 43.1057 46.459 43.1217 46.4286 43.1501C46.3982 43.1785 46.3797 43.2173 46.3766 43.2588L44.6173 69.3238C44.6156 69.3463 44.6187 69.3688 44.6263 69.39C44.6338 69.4112 44.6458 69.4306 44.6613 69.4469C44.6767 69.4633 44.6952 69.4765 44.7158 69.4855C44.7364 69.4946 44.7587 69.4994 44.7812 69.4997L72.674 69.75H72.6756C72.7174 69.7499 72.7576 69.7338 72.7881 69.7051C72.8185 69.6763 72.8369 69.6371 72.8395 69.5953L74.4638 43.2237C74.4651 43.2014 74.4619 43.179 74.4543 43.1579C74.4468 43.1368 74.435 43.1175 74.4198 43.1011C74.4043 43.0848 74.3857 43.0719 74.3651 43.063C74.3445 43.0541 74.3223 43.0495 74.2999 43.0494ZM55.6921 30.7221L55.0484 30.6677C55.1653 29.2933 54.1406 28.0796 52.7651 27.9643C52.4374 27.9359 52.1073 27.9726 51.7939 28.0723C51.4804 28.172 51.1898 28.3327 50.9387 28.5451C50.6865 28.7561 50.4788 29.0151 50.3277 29.307C50.1765 29.599 50.085 29.9181 50.0583 30.2458L49.4146 30.1914C49.5616 28.4634 51.0845 27.1769 52.8183 27.3211C54.5502 27.468 55.8378 28.9928 55.6921 30.7224V30.7221ZM73.1915 30.572H72.5464C72.5464 29.193 71.423 28.0704 70.0428 28.0704C68.663 28.0704 67.5396 29.193 67.5396 30.572H66.8945C66.8945 28.8367 68.3063 27.4256 70.0428 27.4256C71.7797 27.4241 73.1915 28.8367 73.1915 30.572Z" fill="#172B4D"/>
<path d="M70.4153 48.5078C70.1925 48.5081 69.972 48.4621 69.768 48.3727C69.5639 48.2833 69.3807 48.1524 69.2299 47.9884C69.0792 47.8243 68.9642 47.6307 68.8923 47.4199C68.8203 47.209 68.7931 46.9855 68.8122 46.7635C68.8493 46.3394 69.0535 45.9474 69.3797 45.6738C69.7059 45.4001 70.1274 45.2673 70.5516 45.3045C70.9757 45.3417 71.3677 45.5458 71.6414 45.872C71.915 46.1982 72.0478 46.6198 72.0106 47.0439C71.9927 47.254 71.9333 47.4585 71.8359 47.6455C71.7385 47.8325 71.6049 47.9983 71.443 48.1333C71.1555 48.3759 70.7914 48.5086 70.4153 48.5078ZM69.4573 46.821C69.4407 47.0101 69.4805 47.1999 69.5717 47.3664C69.6629 47.5328 69.8015 47.6685 69.9699 47.7562C70.1382 47.8439 70.3288 47.8797 70.5175 47.859C70.7062 47.8383 70.8846 47.7622 71.03 47.6401C71.176 47.5185 71.2826 47.3563 71.3363 47.174C71.3899 46.9917 71.3881 46.7976 71.3312 46.6163C71.2742 46.435 71.1647 46.2747 71.0164 46.1559C70.8681 46.037 70.6879 45.9649 70.4986 45.9487C70.2448 45.9264 69.9927 46.0058 69.7974 46.1694C69.6022 46.3329 69.4799 46.5673 69.4573 46.821ZM70.192 52.51C69.9694 52.5099 69.7493 52.4636 69.5456 52.3739C69.3419 52.2843 69.159 52.1533 69.0086 51.9893C68.8581 51.8253 68.7434 51.6318 68.6717 51.4211C68.6 51.2104 68.5728 50.9871 68.592 50.7653C68.63 50.3416 68.8344 49.9502 69.1605 49.677C69.4866 49.4037 69.9077 49.2709 70.3316 49.3076C70.5417 49.3258 70.7461 49.3853 70.9332 49.4826C71.1203 49.58 71.2863 49.7133 71.4218 49.8749C71.5576 50.036 71.6602 50.2225 71.7235 50.4235C71.7868 50.6246 71.8095 50.8362 71.7904 51.0461C71.7546 51.4455 71.5707 51.8171 71.275 52.0879C70.9793 52.3587 70.593 52.5093 70.192 52.51ZM70.1904 49.9462C69.9506 49.9464 69.7195 50.0363 69.5425 50.1982C69.3655 50.3601 69.2555 50.5824 69.234 50.8213C69.2227 50.9466 69.2363 51.073 69.2741 51.1931C69.3119 51.3131 69.3731 51.4245 69.4542 51.5208C69.5351 51.6175 69.6342 51.6974 69.746 51.7557C69.8578 51.814 69.98 51.8496 70.1056 51.8605C70.231 51.8719 70.3574 51.8583 70.4775 51.8205C70.5976 51.7828 70.7091 51.7217 70.8055 51.6407C70.9565 51.5144 71.0649 51.3446 71.116 51.1545C71.1672 50.9644 71.1586 50.7631 71.0914 50.5781C71.0242 50.393 70.9017 50.2331 70.7406 50.1201C70.5794 50.007 70.3873 49.9463 70.1904 49.9462ZM70.684 67.6178C70.6671 67.6178 70.6505 67.6178 70.6324 67.6163L67.6051 67.4539C67.4812 67.4478 67.3598 67.417 67.248 67.3634C67.1361 67.3097 67.0361 67.2343 66.9538 67.1415C66.8834 67.0618 66.8297 66.9687 66.7961 66.8678C66.7624 66.7669 66.7494 66.6602 66.7579 66.5542L67.5079 54.9005C67.5473 54.4621 67.9406 54.1435 68.4095 54.1694L71.4368 54.3317C71.5607 54.3377 71.6822 54.3685 71.794 54.4221C71.9059 54.4757 72.0059 54.5512 72.0882 54.6441C72.2324 54.8111 72.3022 55.0205 72.2841 55.2314L71.534 66.8851C71.4962 67.3081 71.1271 67.6178 70.684 67.6178ZM68.3598 54.8142C68.2503 54.8142 68.1577 54.8732 68.1516 54.9522L67.4015 66.6043C67.3998 66.6253 67.4025 66.6463 67.4093 66.6661C67.4161 66.686 67.427 66.7042 67.4412 66.7196C67.4924 66.7749 67.5634 66.8076 67.6387 66.8107L70.6655 66.973C70.7824 66.9792 70.8826 66.9182 70.8904 66.8365L71.6404 55.1828C71.6422 55.1619 71.6395 55.1409 71.6327 55.121C71.6259 55.1011 71.615 55.0829 71.6007 55.0675C71.5496 55.0123 71.4788 54.9796 71.4036 54.9765L68.3764 54.8142H68.3598Z" fill="#172B4D"/>
<path d="M67.2993 60.5442L67.2626 61.1879L71.4503 61.4277L71.4873 60.7837L67.2993 60.5442ZM67.5719 57.3789L67.5349 58.0225L71.7229 58.2624L71.7599 57.6188L67.5719 57.3789ZM67.1361 63.686L67.0991 64.3297L71.2871 64.5695L71.3242 63.9259L67.1361 63.686Z" fill="#172B4D"/>
<path d="M69.6632 54.4434L68.8145 67.1915L69.4581 67.2343L70.3073 54.4862L69.6632 54.4434ZM63.6785 49.415H63.6724L48.2449 49.2662C48.0987 49.2602 47.9605 49.1977 47.8593 49.092C47.7582 48.9862 47.702 48.8453 47.7026 48.699C47.7032 48.5526 47.7606 48.4122 47.8626 48.3073C47.9646 48.2023 48.1033 48.141 48.2495 48.1362H48.2557L63.6832 48.2847C63.9959 48.2878 64.2462 48.5427 64.2431 48.8551C64.2414 49.0038 64.1812 49.146 64.0756 49.2507C63.9699 49.3555 63.8273 49.4145 63.6785 49.415Z" fill="#172B4D"/>
<path d="M44.1147 67.5106V66.8662L62.3627 66.8538C63.4009 66.8326 64.3484 65.9483 64.4699 64.8847L65.9727 47.6139C66.0306 47.0994 65.8906 46.6336 65.5794 46.2923C65.2805 45.9649 64.8555 45.7886 64.3742 45.7994L46.1563 45.6887L46.1594 45.0439L64.3696 45.1546C65.0271 45.1423 65.6295 45.3914 66.0564 45.8584C66.4949 46.3393 66.6923 46.9856 66.6148 47.679L65.112 64.9499C64.9554 66.332 63.726 67.4712 62.3701 67.5001L44.1147 67.5106Z" fill="#172B4D"/>
<path d="M67.9037 76.4285C67.0007 76.3691 66.1545 75.967 65.5382 75.3044C65.2528 74.9994 64.9886 74.7082 64.7337 74.4259L64.6882 74.3758C62.6447 72.1155 61.6185 70.981 57.8081 71.3844C54.099 71.7758 51.1115 73.1109 51.0825 73.1244C50.2203 73.5186 49.2367 73.5543 48.3482 73.2234C47.4597 72.8925 46.739 72.2223 46.3446 71.3601C46.0144 70.6401 45.9326 69.8309 46.112 69.0593C46.2913 68.2878 46.7217 67.5977 47.3357 67.0972C47.5692 66.908 47.8253 66.7486 48.0981 66.6225C48.2574 66.5496 52.0451 64.8324 56.8771 64.2909C63.7469 63.5219 66.8378 66.2191 70.7682 70.4226C71.0902 70.7647 71.341 71.1673 71.506 71.6072C71.6709 72.0471 71.7468 72.5153 71.7292 72.9848C71.7003 73.9156 71.3067 74.7977 70.6332 75.4409L70.595 75.4756C70.2519 75.7965 69.8487 76.0463 69.4087 76.2108C68.9686 76.3754 68.5004 76.4513 68.0309 76.4343C67.9885 76.4343 67.9461 76.4316 67.9037 76.4285Z" fill="white"/>
<path d="M45.4367 78.3307L36.9187 63.03C36.8894 62.9777 36.8708 62.92 36.8639 62.8605C36.857 62.8009 36.8619 62.7405 36.8784 62.6829C36.8949 62.6252 36.9226 62.5714 36.9599 62.5245C36.9973 62.4775 37.0436 62.4385 37.0961 62.4095L42.5158 59.3969C42.5682 59.3676 42.6259 59.3489 42.6855 59.3419C42.7451 59.335 42.8055 59.3399 42.8632 59.3564C42.9209 59.3729 42.9748 59.4006 43.0217 59.438C43.0687 59.4754 43.1077 59.5217 43.1367 59.5743L51.6551 74.8749C51.7781 75.0947 51.699 75.3724 51.4777 75.495L46.0579 78.508C45.9519 78.5664 45.8271 78.5804 45.7108 78.5472C45.5944 78.514 45.4959 78.4362 45.4367 78.3307Z" fill="white"/>
<path d="M45.8495 78.8763C45.7751 78.8763 45.701 78.8655 45.6266 78.8443C45.5245 78.8157 45.429 78.767 45.3459 78.7011C45.2627 78.6352 45.1935 78.5535 45.1423 78.4606L36.6528 63.2101C36.6009 63.1175 36.5679 63.0155 36.5557 62.91C36.5434 62.8046 36.5522 62.6978 36.5815 62.5957C36.6103 62.4937 36.6591 62.3984 36.7251 62.3153C36.791 62.2322 36.8727 62.163 36.9656 62.1118L42.3352 59.1277C42.4279 59.0758 42.5299 59.0429 42.6354 59.0307C42.741 59.0185 42.8478 59.0274 42.9499 59.0567C43.1581 59.1157 43.3294 59.2522 43.4343 59.4404L51.9237 74.6909C52.0275 74.8781 52.0529 75.0989 51.9943 75.3047C51.9357 75.5106 51.7978 75.6848 51.6109 75.7892L46.2413 78.7745C46.1214 78.841 45.9866 78.876 45.8495 78.8763ZM42.7282 59.671C42.7007 59.6711 42.6737 59.6778 42.6495 59.6907L37.2799 62.6759C37.2423 62.6969 37.2145 62.7318 37.2024 62.7731C37.1963 62.7935 37.1944 62.8149 37.1968 62.836C37.1991 62.8571 37.2056 62.8776 37.2158 62.8961L45.7053 78.1467C45.7262 78.1841 45.7611 78.2118 45.8023 78.2237C45.8435 78.2356 45.8878 78.2308 45.9255 78.2103L51.2951 75.2262C51.3325 75.2053 51.36 75.1704 51.3717 75.1292C51.3834 75.088 51.3783 75.0439 51.3576 75.0064L42.8681 59.7559C42.8472 59.7183 42.8123 59.6905 42.771 59.6784C42.7617 59.6757 42.7467 59.671 42.7282 59.671Z" fill="#172B4D"/>
<path d="M58.5231 63.7737H47.6593C47.4673 63.7735 47.2833 63.6972 47.1475 63.5615C47.0118 63.4258 46.9354 63.2418 46.9351 63.0498V62.9588C46.9355 62.7669 47.0119 62.583 47.1477 62.4474C47.2834 62.3118 47.4674 62.2356 47.6593 62.2354H58.5231C58.715 62.2356 58.8989 62.3118 59.0347 62.4474C59.1705 62.583 59.2469 62.7669 59.2473 62.9588V63.0498C59.2473 63.1449 59.2286 63.2391 59.1922 63.3269C59.1558 63.4148 59.1024 63.4946 59.0352 63.5618C58.9679 63.629 58.8881 63.6823 58.8002 63.7187C58.7123 63.755 58.6182 63.7737 58.5231 63.7737Z" fill="#F7F8F9"/>
<path d="M58.4769 64.0964H47.7041C47.4144 64.0962 47.1366 63.9811 46.9317 63.7763C46.7267 63.5716 46.6114 63.2939 46.6108 63.0042C46.6114 62.7145 46.7267 62.4369 46.9317 62.2321C47.1366 62.0274 47.4144 61.9123 47.7041 61.9121H58.4769C58.7666 61.9123 59.0443 62.0274 59.2492 62.2322C59.4541 62.4369 59.5694 62.7146 59.5698 63.0042C59.5694 63.2939 59.4541 63.5716 59.2492 63.7763C59.0443 63.9811 58.7666 64.0962 58.4769 64.0964ZM47.7041 62.5569C47.4581 62.5569 47.2564 62.757 47.2564 63.0042C47.2564 63.2499 47.4565 63.452 47.7041 63.452H58.4769C58.7226 63.452 58.9246 63.2514 58.9246 63.0042C58.9246 62.7586 58.7241 62.5569 58.4769 62.5569H47.7041Z" fill="#172B4D"/>
<path d="M20.0036 63.7659L48.0437 63.6413C49.3067 63.6216 49.0302 62.5507 48.7344 61.2947L44.7859 44.905C44.6794 44.119 43.7003 44.2933 42.4385 44.3134L13.629 45.3311C12.3657 45.3508 12.5041 46.3719 12.7999 47.6295L17.1965 62.4489C17.4927 63.7049 18.7406 63.7871 20.0036 63.7659Z" fill="#F1F2F4"/>
<path d="M19.6596 64.0914C18.6338 64.0914 17.2293 63.9592 16.8861 62.5304L12.4883 47.7017C12.28 46.8171 12.1269 45.9799 12.5349 45.455C12.7613 45.165 13.1273 45.015 13.6251 45.0057L42.4288 43.988C42.6216 43.9849 42.8021 43.9788 42.9753 43.973C43.9999 43.9363 44.9671 43.9016 45.1051 44.8422L49.066 61.2863C49.2862 62.2207 49.4775 63.0278 49.0737 63.5438C48.8628 63.8138 48.518 63.9549 48.0491 63.9622L20.0074 64.0868C19.8994 64.0899 19.7826 64.0914 19.6596 64.0914ZM13.1134 47.5452L17.5131 62.3726C17.7318 63.3024 18.5563 63.4663 20.0013 63.442H20.0043L48.0445 63.3175C48.304 63.3132 48.4818 63.2569 48.5651 63.1478C48.7776 62.8747 48.6044 62.142 48.4374 61.4336L48.4208 61.3653L44.4692 44.9618L44.4677 44.9452C44.4237 44.6158 44.0971 44.5781 42.998 44.6174C42.8222 44.6236 42.6367 44.6313 42.4454 44.6344L13.6421 45.6521C13.194 45.6598 13.0818 45.804 13.0451 45.8522C12.8114 46.1495 12.9572 46.8807 13.1134 47.5452Z" fill="#172B4D"/>
<path d="M41.8698 61.7825C41.7984 61.7824 41.729 61.7587 41.6724 61.715C41.6158 61.6714 41.5753 61.6102 41.5571 61.5411L40.8787 58.935C40.8679 58.894 40.8653 58.8513 40.871 58.8094C40.8768 58.7674 40.8907 58.727 40.9122 58.6905C40.9336 58.6539 40.9621 58.622 40.9959 58.5965C41.0298 58.571 41.0683 58.5525 41.1094 58.542C41.1921 58.5206 41.2799 58.5329 41.3536 58.5761C41.4274 58.6193 41.481 58.69 41.5027 58.7726L42.181 61.3788C42.1937 61.4264 42.1952 61.4763 42.1855 61.5246C42.1758 61.5729 42.1551 61.6184 42.125 61.6574C42.0949 61.6965 42.0563 61.728 42.012 61.7497C41.9678 61.7714 41.9191 61.7827 41.8698 61.7825ZM40.9485 61.7976C40.8771 61.7975 40.8076 61.7738 40.751 61.7302C40.6945 61.6865 40.6539 61.6253 40.6358 61.5562L39.9571 58.9485C39.9464 58.9075 39.9439 58.8648 39.9498 58.8229C39.9556 58.781 39.9696 58.7406 39.991 58.7041C40.0125 58.6676 40.0409 58.6357 40.0747 58.6101C40.1084 58.5846 40.1469 58.566 40.1879 58.5553C40.2288 58.5447 40.2715 58.5422 40.3134 58.548C40.3554 58.5538 40.3957 58.5679 40.4323 58.5893C40.4688 58.6107 40.5007 58.6391 40.5262 58.6729C40.5517 58.7067 40.5704 58.7452 40.581 58.7861L41.2598 61.3938C41.2723 61.4414 41.2738 61.4913 41.2641 61.5396C41.2543 61.5879 41.2336 61.6333 41.2035 61.6723C41.1735 61.7113 41.1348 61.7429 41.0906 61.7646C41.0464 61.7863 40.9978 61.7976 40.9485 61.7976ZM40.0269 61.8126C39.9555 61.8122 39.8863 61.7884 39.8298 61.7449C39.7733 61.7013 39.7327 61.6405 39.7141 61.5716L39.0354 58.9654C39.0247 58.9245 39.0221 58.8818 39.0279 58.8398C39.0338 58.7979 39.0478 58.7575 39.0693 58.721C39.0907 58.6845 39.1192 58.6525 39.153 58.6271C39.1868 58.6016 39.2254 58.583 39.2664 58.5725C39.3073 58.5617 39.35 58.5591 39.392 58.5649C39.4339 58.5706 39.4743 58.5846 39.5108 58.6061C39.5474 58.6275 39.5793 58.6559 39.6048 58.6897C39.6303 58.7236 39.6488 58.7621 39.6594 58.8031L40.3381 61.4092C40.3506 61.4568 40.352 61.5067 40.3422 61.5549C40.3325 61.6031 40.3117 61.6485 40.2817 61.6875C40.2516 61.7264 40.213 61.758 40.1688 61.7797C40.1247 61.8014 40.0761 61.8126 40.0269 61.8126Z" fill="#172B4D"/>
<path d="M48.3377 63.649L48.4426 63.6247C48.6365 63.5788 48.8042 63.4579 48.909 63.2884C49.0138 63.1189 49.047 62.9148 49.0014 62.7208L44.7732 44.8533C44.7271 44.6594 44.6059 44.4918 44.4363 44.3871C44.2667 44.2824 44.0625 44.2493 43.8685 44.2949L43.7636 44.3192C43.5697 44.3651 43.4019 44.4862 43.2972 44.6557C43.1924 44.8253 43.1594 45.0296 43.2052 45.2235L47.433 63.0906C47.4789 63.2846 47.6001 63.4524 47.7697 63.5571C47.9394 63.6618 48.1437 63.6949 48.3377 63.649Z" fill="#F7F8F9"/>
<path d="M48.1992 63.9825C47.9915 63.9823 47.7881 63.924 47.6118 63.8143C47.4861 63.7373 47.377 63.636 47.2907 63.5165C47.2045 63.3969 47.1428 63.2614 47.1093 63.1178L42.9024 45.3433C42.8343 45.0538 42.8838 44.7491 43.04 44.496C43.1962 44.2429 43.4464 44.0621 43.7358 43.9932C43.8799 43.958 44.0296 43.9515 44.1762 43.9742C44.3228 43.997 44.4634 44.0484 44.5901 44.1256C44.7168 44.2028 44.827 44.3043 44.9144 44.4242C45.0018 44.5441 45.0647 44.68 45.0994 44.8242L49.3059 62.5992C49.34 62.7426 49.3453 62.8914 49.3216 63.037C49.2979 63.1825 49.2457 63.3219 49.1679 63.4472C49.0907 63.5728 48.9894 63.6819 48.8698 63.7681C48.7502 63.8543 48.6146 63.9159 48.471 63.9493L48.4587 63.9524C48.3739 63.972 48.2859 63.9825 48.1992 63.9825ZM44.0077 44.6044C43.9714 44.6044 43.9348 44.6091 43.8985 44.6179C43.6297 44.6819 43.4701 44.938 43.531 45.1945L47.7379 62.9694C47.7665 63.0936 47.8424 63.1985 47.952 63.2652C48.0596 63.3319 48.1888 63.3531 48.3133 63.3226L48.3268 63.3195C48.4498 63.291 48.5559 63.215 48.623 63.1059C48.6897 62.9979 48.7109 62.8691 48.6804 62.7461L44.4724 44.9716C44.4473 44.8671 44.3878 44.7741 44.3036 44.7076C44.2193 44.641 44.1151 44.6047 44.0077 44.6044Z" fill="#172B4D"/>
<path d="M36.8205 46.2865C36.7351 46.2877 36.6526 46.255 36.5913 46.1954C36.53 46.1359 36.4949 46.0544 36.4937 45.9689C36.4925 45.8835 36.5252 45.801 36.5848 45.7397C36.6443 45.6785 36.7258 45.6433 36.8113 45.6421L43.2071 45.4358C43.3864 45.4234 43.5352 45.5692 43.5399 45.7482C43.5413 45.7905 43.5343 45.8328 43.5194 45.8725C43.5044 45.9121 43.4817 45.9485 43.4527 45.9793C43.4236 46.0102 43.3887 46.035 43.35 46.0523C43.3113 46.0696 43.2695 46.0791 43.2271 46.0802L36.8309 46.2865H36.8205Z" fill="#172B4D"/>
<path d="M81.7856 69.3821L70.8077 66.8789C70.3449 66.7462 69.9128 66.5235 69.536 66.2236C69.1593 65.9238 68.8454 65.5526 68.6122 65.1313C68.379 64.7101 68.2312 64.247 68.177 63.7686C68.1229 63.2902 68.1636 62.8057 68.2968 62.3431C68.8571 60.3983 70.8883 59.2741 72.8361 59.8341C72.8361 59.8341 78.9755 61.2571 78.7418 60.9366L76.5919 55.7336C75.681 53.3654 76.2382 51.6543 77.8961 50.4908C78.4089 50.1289 79.0066 49.9057 79.6311 49.8429C81.1948 49.6836 82.6691 50.6123 83.2989 52.0503L87.3465 61.2768L87.3951 61.3647C87.3951 61.3647 89.3441 65.0568 87.4225 67.4281C87.4025 67.4524 87.3843 67.4751 87.3647 67.4979C86.0134 69.1303 83.8515 69.8538 81.7856 69.3821Z" fill="white"/>
<path d="M83.0583 69.8486C82.6133 69.8486 82.1625 69.7985 81.7132 69.6971L70.7171 67.1893C70.2824 67.0642 69.8719 66.8669 69.5027 66.6054C68.831 66.126 68.3244 65.4503 68.0525 64.6712C67.7806 63.892 67.7568 63.0478 67.9845 62.2546C68.5919 60.1444 70.8023 58.9204 72.9156 59.5224C75.0228 60.011 77.33 60.4965 78.2625 60.6284L76.2919 55.8572C75.3583 53.4331 75.8365 51.5415 77.7083 50.2277C78.2669 49.8345 78.9173 49.5916 79.5968 49.5223C81.2836 49.3496 82.8882 50.3156 83.5924 51.9206L87.6339 61.1336L87.6748 61.2095C87.6975 61.2535 88.1896 62.1925 88.4414 63.4424C88.7846 65.1353 88.5174 66.5842 87.6686 67.6293L87.6096 67.7022C87.057 68.3744 86.3622 68.9156 85.5751 69.2868C84.7881 69.658 83.9285 69.8498 83.0583 69.8486ZM70.8887 66.5661L81.859 69.0673C83.8249 69.5166 85.8395 68.8352 87.1144 67.2911L87.1707 67.2228C88.9347 65.0474 87.1283 61.5477 87.1102 61.5126L87.0524 61.4035L83.0051 52.1771C82.4127 50.8285 81.0707 50.0198 79.6651 50.1609C79.0959 50.2199 78.5513 50.4235 78.0832 50.7525C76.462 51.8905 76.0732 53.4817 76.8946 55.6162L79.0334 60.7938C79.0615 60.8475 79.0747 60.9077 79.0718 60.9682C79.0689 61.0288 79.0499 61.0874 79.0168 61.1382C78.8695 61.3611 78.809 61.4521 75.6737 60.7907C74.2272 60.4857 72.7787 60.1506 72.7652 60.1475L72.7483 60.1428C70.9751 59.633 69.1186 60.6604 68.6084 62.432C68.4176 63.0968 68.4375 63.8045 68.6653 64.4576C68.8931 65.1107 69.3177 65.6771 69.8807 66.079C70.1869 66.2968 70.5277 66.4615 70.8887 66.5661Z" fill="#172B4D"/>
<path d="M63.6845 62.4022C63.6845 62.4022 63.1137 65.8001 66.8984 67.1853C66.8984 67.1853 69.3672 67.9998 70.9988 66.266L72.8542 63.0894C72.8542 63.0894 75.6462 60.3799 71.9826 57.3156C71.9826 57.3156 69.2866 55.2374 66.7329 57.311L66.2019 58.7842" fill="white"/>
<path d="M68.2651 67.7035C67.4545 67.7035 66.8475 67.5091 66.7958 67.4925C64.7084 66.7282 63.887 65.375 63.5634 64.3735C63.2129 63.289 63.3587 62.3863 63.3648 62.3485L64.0007 62.4545L63.6818 62.4017L64.0007 62.4545C63.9795 62.5837 63.5303 65.6098 67.0068 66.8828C67.0187 66.8875 69.2689 67.5959 70.7367 66.0711L72.5966 62.8884L72.6282 62.8583C72.6375 62.849 73.6 61.8888 73.5468 60.534C73.5059 59.5132 72.9109 58.5133 71.7752 57.5638C71.6842 57.494 69.3037 55.7147 67.0052 57.5075L66.5058 58.8943L65.8985 58.6756L66.4603 57.1177L66.5301 57.0617C69.252 54.8512 72.1516 57.039 72.1805 57.0617C73.4755 58.1446 74.1496 59.3038 74.1935 60.519C74.2498 62.0253 73.3085 63.0858 73.1126 63.2891L71.2592 66.4625L71.2334 66.4899C70.3117 67.4651 69.1625 67.7035 68.2651 67.7035Z" fill="#172B4D"/>
<path d="M66.2504 58.8299L66.6468 57.228C67.8705 56.0915 70.0582 55.9989 71.7673 57.1898C73.6847 58.5264 74.35 60.8958 73.2505 62.4719C73.1121 62.6685 72.9506 62.8478 72.7696 63.006L71.2695 65.6137C71.1997 65.761 71.1191 65.9006 71.0296 66.0279C70.5468 66.7197 69.7971 67.1671 68.8951 67.3067C68.7829 67.3237 68.6691 67.3371 68.5519 67.3449C67.535 67.4131 66.4706 67.1004 65.5566 66.4617C64.0688 65.4255 63.2887 63.7283 63.6134 62.2401L65.8648 58.5596" fill="white"/>
<path d="M68.2777 67.6783C67.2789 67.6783 66.2569 67.3459 65.3719 66.7285C63.7792 65.6197 62.9458 63.7887 63.2983 62.1729L63.3103 62.1201L65.5905 58.3929L65.97 58.6246L66.3572 57.0578L66.4285 56.9926C67.8025 55.7169 70.1769 55.6895 71.9532 56.9274C72.9412 57.6162 73.6519 58.5853 73.9523 59.6562C74.2589 60.7503 74.1043 61.8166 73.5165 62.66C73.3741 62.863 73.2092 63.0493 73.0249 63.2153L71.5583 65.7667C71.4836 65.9228 71.3963 66.0725 71.2972 66.2144C70.7673 66.973 69.9324 67.4751 68.9471 67.6282C68.8272 67.6463 68.7073 67.6602 68.5781 67.669C68.4766 67.6752 68.3779 67.6783 68.2777 67.6783ZM63.9176 62.3626C63.6488 63.7143 64.3777 65.2495 65.7409 66.1994C66.594 66.794 67.5839 67.0867 68.5295 67.0246C68.639 67.0169 68.7435 67.0046 68.8453 66.9895C69.6667 66.8623 70.33 66.4662 70.7642 65.8442C70.8452 65.728 70.9163 65.6052 70.9767 65.4771L70.9891 65.4543L72.5147 62.7996L72.5559 62.7649C72.7198 62.6222 72.864 62.4629 72.984 62.2897C73.4591 61.6087 73.5821 60.7348 73.3284 59.8309C73.0688 58.9038 72.4479 58.0604 71.581 57.4569C70.0797 56.4099 68.1014 56.3933 66.9341 57.4037L66.5619 58.9085L66.0992 58.7947L63.9176 62.3626Z" fill="#172B4D"/>
<path d="M73.2502 62.4727C72.7674 63.1646 72.0173 63.6123 71.1157 63.7515C71.002 63.7698 70.8874 63.7825 70.7725 63.7897C69.7552 63.8579 68.6912 63.5452 67.7772 62.9066C66.2104 61.816 65.4437 60.155 65.8278 58.6788L73.2502 62.4727ZM68.7988 58.6591L66.6963 57.0391L68.7988 58.6591Z" fill="white"/>
<path d="M70.4986 64.1223C69.4998 64.1223 68.4783 63.7903 67.5928 63.1729C65.9126 62.0017 65.0974 60.2069 65.5162 58.6003L66.1417 58.7627C65.7911 60.1055 66.5061 61.6299 67.9634 62.6449C68.8165 63.2411 69.8079 63.5323 70.7524 63.4702C70.8576 63.4631 70.9625 63.4514 71.0667 63.4351C71.8877 63.3078 72.5514 62.9118 72.9856 62.2898L73.5151 62.6584C72.9856 63.417 72.1519 63.9191 71.1666 64.0722C71.0497 64.0907 70.9282 64.1042 70.7979 64.1134C70.6976 64.1192 70.5974 64.1223 70.4986 64.1223ZM68.6024 58.9146L66.4999 57.2946L66.8948 56.7832L68.9973 58.4033L68.6024 58.9146Z" fill="#172B4D"/>
<path d="M68.2503 59.8384L65.6226 58.6367L68.2503 59.8384Z" fill="white"/>
<path d="M65.7581 58.3452L65.4897 58.9314L68.1167 60.1319L68.3851 59.5457L65.7581 58.3452Z" fill="#172B4D"/>
<path d="M70.5389 61.7561C70.0437 61.7561 69.5035 61.5937 69.0129 61.2948C68.4422 60.9474 68.0018 60.453 67.8047 59.937C67.7893 59.9023 67.6906 59.652 67.7608 59.3879L68.3847 59.5518C68.3739 59.5942 68.3951 59.6748 68.4029 59.6929C68.5559 60.0905 68.8976 60.468 69.3484 60.7426C69.748 60.9852 70.1972 61.119 70.5782 61.1097C70.7726 61.1051 71.1216 61.0581 71.2828 60.7943C71.4436 60.5301 71.3252 60.1981 71.24 60.0234C71.073 59.6806 70.7483 59.3439 70.3492 59.1013C69.6415 58.6706 68.8475 58.6293 68.6092 58.8796L68.1418 58.4353C68.6821 57.868 69.8586 58.0485 70.6847 58.5506C71.1929 58.8599 71.5971 59.2833 71.82 59.7415C72.066 60.2467 72.0722 60.7395 71.8339 61.1309C71.5971 61.5208 71.1551 61.7437 70.5933 61.7576C70.5751 61.7561 70.557 61.7561 70.5389 61.7561ZM78.4907 59.5383L77.932 59.2151C80.2365 55.2496 85.0219 55.5816 85.069 55.5862L85.0173 56.2295C84.9749 56.2264 80.589 55.929 78.4907 59.5383Z" fill="#172B4D"/>
<path d="M77.2808 60.77C78.4616 61.5162 80.9227 65.594 78.2128 68.801L77.2808 60.77Z" fill="white"/>
<path d="M78.4559 69.0103L77.9626 68.5946C78.9113 67.472 79.2757 66.1492 79.0467 64.6657C78.7794 62.9345 77.7471 61.451 77.105 61.0445L77.4494 60.5C78.1674 60.9535 79.3745 62.5601 79.6841 64.567C79.941 66.219 79.5156 67.7558 78.4559 69.0103Z" fill="#172B4D"/>
<path d="M82.1499 61.7524C82.1499 61.7524 86.1413 65.0929 83.0442 69.4359L82.1499 61.7524Z" fill="white"/>
<path d="M83.3057 69.6227L82.7805 69.2479C85.6635 65.2067 82.0959 62.1286 81.9409 61.9998L82.3555 61.5054C82.3994 61.5401 86.5393 65.0899 83.3057 69.6227Z" fill="#172B4D"/>
<path d="M73.8771 59.6777L73.7417 60.3079L84.7062 62.6634L84.8415 62.0332L73.8771 59.6777Z" fill="#172B4D"/>
<path d="M24.0025 35.248C24.0025 35.248 22.3829 38.3092 25.5571 40.8259C25.5571 40.8259 27.6549 42.3823 29.7609 41.2431L32.5359 38.7978C32.5359 38.7978 36.0568 37.094 33.5305 33.0132C33.5305 33.0132 31.6162 30.1795 28.5222 31.3522L27.5504 32.5901" fill="white"/>
<path d="M28.1054 41.9882C26.6053 41.9882 25.4337 41.1371 25.3655 41.0874C23.6166 39.6991 23.2599 38.1503 23.2672 37.0929C23.2765 35.9476 23.6999 35.1331 23.7184 35.0995L24.2891 35.4015L24.0038 35.2515L24.2891 35.4015C24.2282 35.5168 22.8407 38.2641 25.7584 40.5776C25.7692 40.5853 27.6928 41.9716 29.5762 40.9809L32.3563 38.531L32.3956 38.5113C32.408 38.5051 33.6297 37.8939 34.008 36.5816C34.2918 35.5943 34.04 34.452 33.2568 33.1868C33.1912 33.0911 31.4817 30.6412 28.7205 31.6257L27.805 32.7923L27.2979 32.395L28.3256 31.0858L28.4093 31.0538C31.7034 29.8055 33.7789 32.8058 33.7986 32.8362C34.6913 34.2774 34.9675 35.597 34.6258 36.7682C34.2023 38.2232 32.9695 38.9378 32.7207 39.0697L29.9484 41.5135L29.9168 41.5316C29.3606 41.8328 28.7379 41.9898 28.1054 41.9882Z" fill="#172B4D"/>
<path d="M27.5828 32.6504L28.4663 31.2475C29.9922 30.5495 32.1098 31.1518 33.3639 32.8278C34.7715 34.7074 34.6573 37.1786 33.109 38.3363C32.9177 38.479 32.7064 38.5985 32.4804 38.6926L30.2259 40.7072C30.1149 40.8235 29.9946 40.9306 29.8661 41.0273C29.1859 41.534 28.3298 41.7253 27.4251 41.5734C27.3112 41.5546 27.1983 41.5309 27.0865 41.5024C26.0934 41.2459 25.1779 40.6116 24.5069 39.7153C23.4156 38.2557 23.2073 36.3915 23.9879 35.073L27.4586 32.2713" fill="white"/>
<path d="M28.0148 41.9455C27.8038 41.9455 27.5883 41.9273 27.3708 41.8911C27.2479 41.8704 27.1259 41.8445 27.0052 41.8136C25.9397 41.539 24.9601 40.861 24.2467 39.9066C23.0778 38.3455 22.8607 36.3371 23.708 34.9083L23.7381 34.8582L27.2543 32.0199L27.4471 32.2578L28.2438 30.9929L28.3322 30.9532C30.0459 30.1703 32.3185 30.8926 33.6231 32.6342C34.3481 33.6037 34.7187 34.7517 34.6674 35.867C34.6142 37.0062 34.1298 37.9741 33.3023 38.5931C33.102 38.7418 32.8855 38.8674 32.6571 38.9676L30.4512 40.9397C30.3309 41.065 30.2005 41.1802 30.0614 41.2841C29.4767 41.7195 28.7679 41.9455 28.0148 41.9455ZM24.2363 35.2858C23.5545 36.4902 23.7639 38.1847 24.7646 39.5213C25.3913 40.3586 26.2447 40.9521 27.166 41.19C27.2724 41.2174 27.3773 41.2386 27.4772 41.2552C28.3017 41.3932 29.0606 41.2251 29.6711 40.7685C29.7833 40.6848 29.8909 40.5892 29.99 40.4847L30.0081 40.4665L32.3035 38.4153L32.3536 38.3941C32.5525 38.3108 32.7406 38.2038 32.9139 38.0756C33.5834 37.575 33.9764 36.7802 34.0207 35.8365C34.0662 34.8686 33.7396 33.869 33.1037 33.0194C32.0015 31.5451 30.1188 30.905 28.6842 31.5008L27.854 32.8208L27.535 32.6203L24.2363 35.2858Z" fill="#172B4D"/>
<path d="M33.1073 38.3348C32.427 38.843 31.5709 39.0324 30.6662 38.8824C30.5536 38.8642 30.4414 38.84 30.3276 38.811C29.3346 38.5546 28.4191 37.9206 27.7481 37.024C26.5989 35.4887 26.4076 33.7198 27.241 32.4337L33.1073 38.3348ZM29.9528 33.2316L28.571 31.082L29.9528 33.2316Z" fill="white"/>
<path d="M31.2574 39.2545C31.0465 39.2545 30.8309 39.2364 30.6134 39.1997C30.4906 39.1787 30.3686 39.1529 30.2478 39.1222C29.1819 38.8477 28.2028 38.1697 27.4893 37.2156C26.2553 35.5666 26.0563 33.6674 26.9703 32.2563L27.5121 32.6072C26.7485 33.7842 26.9383 35.4027 28.0069 36.8288C28.6339 37.6661 29.4858 38.2592 30.4086 38.4975C30.5181 38.5249 30.6196 38.5461 30.7198 38.5627C31.5443 38.7007 32.3033 38.5322 32.9137 38.0756L33.3009 38.5931C32.7194 39.0285 32.0102 39.2545 31.257 39.2545H31.2574ZM29.6813 33.4063L28.3 31.2567L28.8437 30.9077L30.2251 33.0573L29.6813 33.4063Z" fill="#172B4D"/>
<path d="M29.1673 34.0992L27.0405 32.2666L29.1673 34.0992Z" fill="white"/>
<path d="M27.255 32.0229L26.8335 32.5112L28.9595 34.3433L29.3806 33.8551L27.255 32.0233V32.0229Z" fill="#172B4D"/>
<path d="M29.5137 33.1764C30.0219 32.9049 31.077 33.316 31.6509 33.9913C32.3705 34.8362 32.5131 35.8963 31.9698 36.3576C31.426 36.8188 30.4029 36.508 29.6833 35.663C29.2796 35.1879 29.0578 34.6465 29.0366 34.1806C29.0366 34.1806 29.0763 33.8077 29.1735 33.6604" fill="white"/>
<path d="M31.3366 36.8962C30.7158 36.8962 29.9977 36.5322 29.4362 35.872C29.002 35.3626 28.7378 34.7509 28.712 34.1975L28.7104 34.1732L28.7135 34.149C28.7239 34.0425 28.7714 33.6831 28.9002 33.486L29.4405 33.8377C29.4135 33.8832 29.3753 34.0471 29.3587 34.1929C29.3845 34.6009 29.5909 35.0606 29.9279 35.4551C30.5199 36.1512 31.3598 36.4531 31.7589 36.1134C31.9972 35.9117 31.988 35.5565 31.9621 35.3626C31.9109 34.9815 31.7072 34.5585 31.4037 34.2002C30.9013 33.6087 29.9962 33.2828 29.6637 33.4617L29.3587 32.8929C30.0586 32.5181 31.2746 33.0537 31.8954 33.7834C32.2826 34.2384 32.5344 34.7694 32.6031 35.2758C32.679 35.8357 32.5271 36.3074 32.1777 36.6047C31.9456 36.8022 31.654 36.8962 31.337 36.8962H31.3366Z" fill="#172B4D"/>
</g>
</svg>
