<svg width="43" height="46" viewBox="0 0 43 46" fill="none" xmlns="http://www.w3.org/2000/svg">
<path d="M36.8294 18.6134L12.8408 14.8877L9.11511 38.8763L33.1037 42.602L36.8294 18.6134Z" fill="#E4A400" stroke="#101214" stroke-width="0.630572" stroke-linecap="round" stroke-linejoin="round"/>
<path d="M39.9309 21.2477L15.9424 17.522L12.2167 41.5105L36.2052 45.2362L39.9309 21.2477Z" fill="url(#paint0_linear_3512_61381)" stroke="#101214" stroke-width="0.630572" stroke-linecap="round" stroke-linejoin="round"/>
<path d="M33.1349 24.8761L21.5727 23.0803L17.4534 27.9506L24.628 41.2443L35.3279 30.7268L33.1368 24.8763L33.1349 24.8761ZM28.6052 30.079L24.9816 38.1693L23.8926 29.3471L28.6052 30.079ZM24.2388 28.4972L26.8821 25.4247L28.0672 29.0918L24.2388 28.4972ZM27.6631 24.9317L31.9098 25.5913L28.9093 28.7868L27.6631 24.9317ZM23.5175 27.9644L21.9508 24.0445L26.3075 24.7212L23.5175 27.9644ZM22.6685 28.2534L18.8676 27.663L21.2886 24.8002L22.6685 28.2534ZM24.1801 38.9992L18.7964 28.5575L22.9733 29.2062L24.182 38.9995L24.1801 38.9992ZM29.5224 30.2215L33.8755 30.8976L25.5545 39.0774L29.5206 30.2212L29.5224 30.2215ZM29.6228 29.3334L32.6435 26.1167L34.1097 30.0303L29.6228 29.3334Z" fill="#E4A400" stroke="#E4A400" stroke-width="0.532061" stroke-linecap="round" stroke-linejoin="round"/>
<path d="M36.8284 18.6139L39.9286 21.2483L15.94 17.5226L12.8398 14.8882L36.8284 18.6139Z" fill="#E4A400" stroke="#101214" stroke-width="0.630572" stroke-linecap="round" stroke-linejoin="round"/>
<path d="M12.2143 41.5112L9.11414 38.8768L12.8398 14.8882L15.94 17.5226L12.2143 41.5112Z" fill="#E4A400" stroke="#101214" stroke-width="0.630572" stroke-linecap="round" stroke-linejoin="round"/>
<path d="M33.229 19.4377C34.1083 19.5743 34.8488 19.5076 34.8828 19.2888C34.9167 19.0699 34.2314 18.7818 33.352 18.6452C32.4726 18.5087 31.7322 18.5753 31.6982 18.7942C31.6642 19.013 32.3496 19.3011 33.229 19.4377Z" fill="black" stroke="#101214" stroke-width="0.630572" stroke-linecap="round" stroke-linejoin="round"/>
<path d="M21.8843 17.0332C21.6154 17.1192 21.1652 17.224 20.61 17.1697C19.8569 17.0959 19.3231 16.7707 19.0758 16.597L19.9807 10.7709C20.5035 7.40478 18.2924 4.1626 14.9406 3.55937C11.4882 2.93863 8.20701 5.2921 7.67139 8.74079L6.87935 13.8404C6.76482 14.5779 6.09815 15.1206 5.35502 15.0428C5.3052 15.0369 5.25356 15.0307 5.20093 15.0188C5.19359 15.0177 5.18625 15.0165 5.17891 15.0154C4.43687 14.8701 3.9552 14.149 4.07116 13.4024L4.84211 8.43851C5.6068 3.51496 10.1541 0.0130144 15.0893 0.70249C20.1129 1.40381 23.5832 6.09461 22.8077 11.0879L21.8849 17.0295L21.8843 17.0332Z" fill="#E4A400" stroke="#101214" stroke-width="0.630572" stroke-linecap="round" stroke-linejoin="round"/>
<defs>
<linearGradient id="paint0_linear_3512_61381" x1="14.1523" y1="17.522" x2="36.3902" y2="46.7092" gradientUnits="userSpaceOnUse">
<stop offset="0.105" stop-color="#F1EEE0"/>
<stop offset="0.925" stop-color="#FDD73F"/>
</linearGradient>
</defs>
</svg>