<svg xmlns="http://www.w3.org/2000/svg" width="101" height="72" viewBox="0 0 101 72" fill="none">
  <g clip-path="url(#clip0_3498_4269)">
    <path fill-rule="evenodd" clip-rule="evenodd" d="M44.9827 15.8165C45.69 15.3744 46.5697 15.3092 47.3345 15.6421L85.6703 32.3295C86.4546 32.6709 87.0134 33.3853 87.1559 34.2287L90.2616 52.6114C90.4339 53.6308 89.9688 54.6525 89.087 55.1922L43.6644 82.9887C42.9694 83.414 42.1122 83.4788 41.3612 83.1627C40.6102 82.8466 40.0573 82.1883 39.8756 81.394L27.7946 28.5663C27.5542 27.5151 28.0061 26.4271 28.9205 25.8555L44.9827 15.8165ZM44.5393 22.0636L46.5232 32.3197L35.681 27.6002L44.5393 22.0636ZM33.8469 32.3231L41.9861 67.9139L47.0917 38.0885L33.8469 32.3231ZM55.3403 36.1578L64.1987 30.6212L66.1826 40.8774L55.3403 36.1578ZM65.6103 46.1496L46.5757 71.1063L51.8716 40.1692L65.6103 46.1496ZM52.5574 71.6114L70.3902 48.2303L82.2959 53.4128L52.5574 71.6114ZM84.4914 48.8471L74.7535 44.6082L82.8283 39.0032L84.4914 48.8471ZM79.4875 35.1595L69.382 30.7606L71.3285 40.823L79.4875 35.1595ZM60.5648 26.9225L49.7226 22.203L51.7064 32.459L60.5648 26.9225Z" fill="url(#paint0_linear_3498_4269)"/>
  </g>
  <defs>
    <linearGradient id="paint0_linear_3498_4269" x1="35.184" y1="10.353" x2="79.382" y2="92.1895" gradientUnits="userSpaceOnUse">
      <stop stop-color="#E9F2FF"/>
      <stop offset="1" stop-color="#FCF7DE"/>
    </linearGradient>
    <clipPath id="clip0_3498_4269">
      <rect width="81" height="81" fill="white" transform="translate(32.3289) rotate(23.5233)"/>
    </clipPath>
  </defs>
</svg>
