<svg xmlns="http://www.w3.org/2000/svg" width="12" height="12" fill="none" viewBox="0 0 12 12">
  <path
    clip-rule="evenodd"
    fill="#2C3E5D"
    fill-rule="evenodd"
    d="M2.65408 1.4003C2.72402 1.29843 2.83966 1.23755 2.96323 1.23755H9.15734C9.28407 1.23755 9.40222 1.30155 9.47144 1.40769L10.9803 3.7211C11.0639 3.84939 11.0612 4.01567 10.9733 4.14111L6.44684 10.6027C6.37758 10.7016 6.26496 10.7611 6.14426 10.7625C6.02356 10.764 5.90953 10.7073 5.83789 10.6101L1.07318 4.14851C0.978373 4.01994 0.975427 3.84541 1.06585 3.71371L2.65408 1.4003ZM2.96323 2.27511L3.83915 3.55096H2.08732L2.96323 2.27511ZM2.11745 4.30096L5.3275 8.65422L4.25748 4.30096H2.11745ZM5.26379 3.55096L6.13971 2.2751L7.01564 3.55096H5.26379ZM7.24963 4.30096L6.13971 8.81649L5.0298 4.30096H7.24963ZM6.9821 8.53141L8.02195 4.30096H9.94562L6.9821 8.53141ZM9.97388 3.55096H8.40047L9.16591 2.31212L9.97388 3.55096ZM8.48484 1.98755H6.85203L7.71142 3.2393L8.48484 1.98755ZM5.42738 1.98755H3.67555L4.55147 3.2634L5.42738 1.98755Z"
  />
</svg>
